<mxfile host="65bd71144e">
    <diagram id="AmbIO0eNBSl3mJiWK7nr" name="Page-1">
        <mxGraphModel dx="1374" dy="753" grid="1" gridSize="10" guides="1" tooltips="1" connect="1" arrows="1" fold="1" page="1" pageScale="1" pageWidth="1169" pageHeight="827" math="0" shadow="0">
            <root>
                <mxCell id="0"/>
                <mxCell id="131" value="BackGroundLayer" style="locked=1;" parent="0"/>
                <mxCell id="132" value="" style="rounded=0;whiteSpace=wrap;html=1;fontFamily=Times New Roman;fontSize=16;gradientDirection=east;fillColor=#d5e8d4;strokeColor=#82b366;opacity=30;" parent="131" vertex="1">
                    <mxGeometry x="40" y="650" width="1120" height="140" as="geometry"/>
                </mxCell>
                <mxCell id="133" value="" style="rounded=0;whiteSpace=wrap;html=1;fontFamily=Times New Roman;fontSize=16;gradientDirection=east;fillColor=#d5e8d4;strokeColor=none;opacity=30;" parent="131" vertex="1">
                    <mxGeometry x="40" y="490" width="1120" height="140" as="geometry"/>
                </mxCell>
                <mxCell id="134" value="" style="rounded=0;whiteSpace=wrap;html=1;fontFamily=Times New Roman;fontSize=16;gradientDirection=east;fillColor=#fff2cc;strokeColor=none;opacity=30;" parent="131" vertex="1">
                    <mxGeometry x="40" y="330" width="1120" height="140" as="geometry"/>
                </mxCell>
                <mxCell id="135" value="" style="rounded=0;whiteSpace=wrap;html=1;fontFamily=Times New Roman;fontSize=16;gradientDirection=east;fillColor=#f8cecc;strokeColor=none;opacity=30;" parent="131" vertex="1">
                    <mxGeometry x="40" y="170" width="1120" height="140" as="geometry"/>
                </mxCell>
                <mxCell id="1" style="locked=1;" parent="0"/>
                <mxCell id="24" value="" style="shape=crossbar;whiteSpace=wrap;html=1;rounded=1;" parent="1" vertex="1">
                    <mxGeometry x="920" y="150" width="240" height="20" as="geometry"/>
                </mxCell>
                <mxCell id="33" value="" style="endArrow=none;dashed=1;html=1;rounded=0;sourcePerimeterSpacing=0;jumpStyle=line;jumpSize=10;entryX=0;entryY=0.5;entryDx=0;entryDy=0;entryPerimeter=0;strokeWidth=1;strokeColor=#8C8C8C;startSize=6;endSize=6;" parent="1" target="56" edge="1">
                    <mxGeometry width="50" height="50" relative="1" as="geometry">
                        <mxPoint x="200" y="800" as="sourcePoint"/>
                        <mxPoint x="199" y="110" as="targetPoint"/>
                    </mxGeometry>
                </mxCell>
                <mxCell id="36" value="" style="endArrow=none;dashed=1;html=1;rounded=0;sourcePerimeterSpacing=0;jumpStyle=line;jumpSize=10;strokeWidth=1;strokeColor=#8C8C8C;startSize=6;endSize=6;" parent="1" edge="1">
                    <mxGeometry width="50" height="50" relative="1" as="geometry">
                        <mxPoint x="1160" y="810" as="sourcePoint"/>
                        <mxPoint x="1160" y="100" as="targetPoint"/>
                    </mxGeometry>
                </mxCell>
                <mxCell id="42" value="" style="endArrow=none;html=1;" parent="1" edge="1">
                    <mxGeometry width="50" height="50" relative="1" as="geometry">
                        <mxPoint x="40" y="320" as="sourcePoint"/>
                        <mxPoint x="1160" y="320" as="targetPoint"/>
                    </mxGeometry>
                </mxCell>
                <mxCell id="43" value="" style="endArrow=none;html=1;" parent="1" edge="1">
                    <mxGeometry width="50" height="50" relative="1" as="geometry">
                        <mxPoint x="40" y="480" as="sourcePoint"/>
                        <mxPoint x="1160" y="480" as="targetPoint"/>
                    </mxGeometry>
                </mxCell>
                <mxCell id="44" value="" style="endArrow=none;html=1;" parent="1" edge="1">
                    <mxGeometry width="50" height="50" relative="1" as="geometry">
                        <mxPoint x="40" y="640" as="sourcePoint"/>
                        <mxPoint x="1160" y="640" as="targetPoint"/>
                    </mxGeometry>
                </mxCell>
                <mxCell id="50" value="" style="shape=crossbar;whiteSpace=wrap;html=1;rounded=1;" parent="1" vertex="1">
                    <mxGeometry x="680" y="150" width="240" height="20" as="geometry"/>
                </mxCell>
                <mxCell id="55" value="" style="shape=crossbar;whiteSpace=wrap;html=1;rounded=1;" parent="1" vertex="1">
                    <mxGeometry x="440" y="150" width="240" height="20" as="geometry"/>
                </mxCell>
                <mxCell id="56" value="" style="shape=crossbar;whiteSpace=wrap;html=1;rounded=1;" parent="1" vertex="1">
                    <mxGeometry x="200" y="150" width="240" height="20" as="geometry"/>
                </mxCell>
                <mxCell id="103" value="" style="endArrow=none;html=1;" parent="1" edge="1">
                    <mxGeometry width="50" height="50" relative="1" as="geometry">
                        <mxPoint x="40" y="800" as="sourcePoint"/>
                        <mxPoint x="1160" y="800" as="targetPoint"/>
                    </mxGeometry>
                </mxCell>
                <mxCell id="122" value="" style="endArrow=none;dashed=1;html=1;rounded=0;sourcePerimeterSpacing=0;jumpStyle=line;jumpSize=10;entryX=1;entryY=0.5;entryDx=0;entryDy=0;entryPerimeter=0;strokeWidth=1;strokeColor=#8C8C8C;startSize=6;endSize=6;" parent="1" target="56" edge="1">
                    <mxGeometry width="50" height="50" relative="1" as="geometry">
                        <mxPoint x="440" y="800" as="sourcePoint"/>
                        <mxPoint x="440" y="110" as="targetPoint"/>
                    </mxGeometry>
                </mxCell>
                <mxCell id="125" value="" style="endArrow=none;dashed=1;html=1;rounded=0;sourcePerimeterSpacing=0;jumpStyle=line;jumpSize=10;strokeWidth=1;strokeColor=#8C8C8C;startSize=6;endSize=6;entryX=1;entryY=0.5;entryDx=0;entryDy=0;entryPerimeter=0;" parent="1" target="55" edge="1">
                    <mxGeometry width="50" height="50" relative="1" as="geometry">
                        <mxPoint x="680" y="800" as="sourcePoint"/>
                        <mxPoint x="690" y="170" as="targetPoint"/>
                    </mxGeometry>
                </mxCell>
                <mxCell id="126" value="Jour 3" style="rounded=0;whiteSpace=wrap;html=1;fillColor=#d5e8d4;strokeColor=#82b366;fontSize=20;fontStyle=1;fontFamily=Times New Roman;" parent="1" vertex="1">
                    <mxGeometry x="40" y="490" width="150" height="60" as="geometry"/>
                </mxCell>
                <mxCell id="153" value="" style="endArrow=none;dashed=1;html=1;rounded=0;sourcePerimeterSpacing=0;jumpStyle=line;jumpSize=10;strokeWidth=1;strokeColor=#8C8C8C;startSize=6;endSize=6;entryX=1;entryY=0.5;entryDx=0;entryDy=0;entryPerimeter=0;" edge="1" parent="1" target="50">
                    <mxGeometry width="50" height="50" relative="1" as="geometry">
                        <mxPoint x="920" y="800" as="sourcePoint"/>
                        <mxPoint x="690" y="170" as="targetPoint"/>
                    </mxGeometry>
                </mxCell>
                <mxCell id="17" value="Objects" style="" parent="0"/>
                <mxCell id="86" value="Analyse et Conception&lt;br&gt;Temps: 5:25" style="html=1;shape=mxgraph.infographic.ribbonSimple;notch1=5.29;notch2=5.57;align=center;verticalAlign=middle;fontSize=14;fontStyle=0;fillColor=#d5e8d4;strokeColor=#82b366;fontFamily=Times New Roman;" parent="17" vertex="1">
                    <mxGeometry x="200" y="490" width="800" height="50" as="geometry"/>
                </mxCell>
                <mxCell id="87" value="Total d'heure : 6:50" style="rounded=0;whiteSpace=wrap;html=1;fillColor=#d5e8d4;strokeColor=none;fontSize=16;fontFamily=Times New Roman;" parent="17" vertex="1">
                    <mxGeometry x="40" y="550" width="150" height="40" as="geometry"/>
                </mxCell>
                <mxCell id="88" value="Analyse" style="html=1;shape=mxgraph.infographic.ribbonSimple;notch1=5.29;notch2=5.57;align=center;verticalAlign=middle;fontSize=14;fontStyle=0;fillColor=#d5e8d4;strokeColor=#82b366;fontFamily=Times New Roman;" parent="17" vertex="1">
                    <mxGeometry x="200" y="550" width="510" height="40" as="geometry"/>
                </mxCell>
                <mxCell id="90" value="UML" style="html=1;shape=mxgraph.infographic.ribbonSimple;notch1=5.29;notch2=5.57;align=center;verticalAlign=middle;fontSize=14;fontStyle=0;fillColor=#d5e8d4;strokeColor=#82b366;fontFamily=Times New Roman;" parent="17" vertex="1">
                    <mxGeometry x="910" y="590" width="90" height="40" as="geometry"/>
                </mxCell>
                <mxCell id="92" value="ImplÃ©mentation&lt;br&gt;Temps: 2:25" style="html=1;shape=mxgraph.infographic.ribbonSimple;notch1=5.29;notch2=5.57;align=center;verticalAlign=middle;fontSize=14;fontStyle=0;fillColor=#fff2cc;strokeColor=#d6b656;fontFamily=Times New Roman;" parent="17" vertex="1">
                    <mxGeometry x="580" y="330" width="400" height="50" as="geometry"/>
                </mxCell>
                <mxCell id="94" value="Documentation&lt;br&gt;Temps: 1:10" style="html=1;shape=mxgraph.infographic.ribbonSimple;notch1=5.29;notch2=5.57;align=center;verticalAlign=middle;fontSize=14;fontStyle=0;fillColor=#fff2cc;strokeColor=#d6b656;gradientDirection=east;fontFamily=Times New Roman;" parent="17" vertex="1">
                    <mxGeometry x="980" y="330" width="180" height="50" as="geometry"/>
                </mxCell>
                <mxCell id="95" value="Analyse et Conception&lt;br&gt;Temps: 3:00" style="html=1;shape=mxgraph.infographic.ribbonSimple;notch1=5.29;notch2=5.57;align=center;verticalAlign=middle;fontSize=14;fontStyle=0;fillColor=#fff2cc;strokeColor=#d6b656;fontFamily=Times New Roman;" parent="17" vertex="1">
                    <mxGeometry x="200" y="330" width="380" height="50" as="geometry"/>
                </mxCell>
                <mxCell id="97" value="Analyse" style="html=1;shape=mxgraph.infographic.ribbonSimple;notch1=5.29;notch2=5.57;align=center;verticalAlign=middle;fontSize=14;fontStyle=0;fillColor=#fff2cc;strokeColor=#d6b656;fontFamily=Times New Roman;" parent="17" vertex="1">
                    <mxGeometry x="200" y="390" width="320" height="40" as="geometry"/>
                </mxCell>
                <mxCell id="101" value="Documentation&lt;br&gt;Temps: 1:25" style="html=1;shape=mxgraph.infographic.ribbonSimple;notch1=5.29;notch2=5.57;align=center;verticalAlign=middle;fontSize=14;fontStyle=0;fillColor=#d5e8d4;strokeColor=#82b366;fontFamily=Times New Roman;" parent="17" vertex="1">
                    <mxGeometry x="1000" y="490" width="160" height="50" as="geometry"/>
                </mxCell>
                <mxCell id="106" value="Prototypage&lt;br&gt;Temps: 3:00" style="html=1;shape=mxgraph.infographic.ribbonSimple;notch1=5.29;notch2=5.57;align=center;verticalAlign=middle;fontSize=14;fontStyle=0;fillColor=#d5e8d4;strokeColor=#82b366;fontFamily=Times New Roman;" parent="17" vertex="1">
                    <mxGeometry x="200" y="650" width="400" height="50" as="geometry"/>
                </mxCell>
                <mxCell id="110" value="UML" style="html=1;shape=mxgraph.infographic.ribbonSimple;notch1=5.29;notch2=5.57;align=center;verticalAlign=middle;fontSize=14;fontStyle=0;fillColor=#fff2cc;strokeColor=#d6b656;fontFamily=Times New Roman;" parent="17" vertex="1">
                    <mxGeometry x="435" y="430" width="150" height="40" as="geometry"/>
                </mxCell>
                <mxCell id="113" value="ImplÃ©mentation finale&lt;br&gt;Temps; 2:00" style="html=1;shape=mxgraph.infographic.ribbonSimple;notch1=5.29;notch2=5.57;align=center;verticalAlign=middle;fontSize=14;fontStyle=0;fillColor=#d5e8d4;strokeColor=#82b366;fontFamily=Times New Roman;" parent="17" vertex="1">
                    <mxGeometry x="720" y="650" width="320" height="50" as="geometry"/>
                </mxCell>
                <mxCell id="115" value="Documentation&lt;br&gt;Temps: 1:00" style="html=1;shape=mxgraph.infographic.ribbonSimple;notch1=5.29;notch2=5.57;align=center;verticalAlign=middle;fontSize=14;fontStyle=0;fillColor=#d5e8d4;strokeColor=#82b366;fontFamily=Times New Roman;" parent="17" vertex="1">
                    <mxGeometry x="1040" y="650" width="120" height="50" as="geometry"/>
                </mxCell>
                <mxCell id="116" value="ImplÃ©mentation&lt;br&gt;Temps: 1:15" style="html=1;shape=mxgraph.infographic.ribbonSimple;notch1=5.29;notch2=5.57;align=center;verticalAlign=middle;fontSize=14;fontStyle=0;fillColor=#f8cecc;strokeColor=#b85450;fontFamily=Times New Roman;" parent="17" vertex="1">
                    <mxGeometry x="680" y="170" width="360" height="50" as="geometry"/>
                </mxCell>
                <mxCell id="118" value="Analyse et conception&lt;br&gt;Temps: 3:35" style="html=1;shape=mxgraph.infographic.ribbonSimple;notch1=5.29;notch2=5.57;align=center;verticalAlign=middle;fontSize=14;fontStyle=0;fillColor=#f8cecc;strokeColor=#b85450;fontFamily=Times New Roman;" parent="17" vertex="1">
                    <mxGeometry x="200" y="170" width="480" height="50" as="geometry"/>
                </mxCell>
                <mxCell id="120" value="Analyse des besoins" style="html=1;shape=mxgraph.infographic.ribbonSimple;notch1=5.29;notch2=5.57;align=center;verticalAlign=middle;fontSize=14;fontStyle=0;fillColor=#f8cecc;strokeColor=#b85450;fontFamily=Times New Roman;" parent="17" vertex="1">
                    <mxGeometry x="200" y="230" width="150" height="40" as="geometry"/>
                </mxCell>
                <mxCell id="123" value="Semaine 3 (09.05.2022 - 12.05.2022): Pathfinding HPA" style="rounded=0;whiteSpace=wrap;html=1;fillColor=#f5f5f5;strokeColor=#666666;fontSize=17;fontStyle=1;fontColor=#333333;fontFamily=Times New Roman;" parent="17" vertex="1">
                    <mxGeometry x="200" y="80" width="960" height="50" as="geometry"/>
                </mxCell>
                <mxCell id="128" value="Jour 4" style="rounded=0;whiteSpace=wrap;html=1;fillColor=#d5e8d4;strokeColor=#82b366;fontSize=20;fontStyle=1;fontFamily=Times New Roman;" parent="17" vertex="1">
                    <mxGeometry x="40" y="650" width="150" height="60" as="geometry"/>
                </mxCell>
                <mxCell id="129" value="&lt;span style=&quot;font-family: &amp;#34;helvetica&amp;#34; ; font-size: 14px&quot;&gt;Algorithm HPA&lt;/span&gt;" style="rounded=0;whiteSpace=wrap;html=1;fillColor=#d5e8d4;strokeColor=none;fontSize=16;fontFamily=Times New Roman;" parent="17" vertex="1">
                    <mxGeometry x="40" y="750" width="150" height="40" as="geometry"/>
                </mxCell>
                <mxCell id="130" value="Total d'heure : 7:25" style="rounded=0;whiteSpace=wrap;html=1;fillColor=#d5e8d4;strokeColor=none;fontSize=16;fontFamily=Times New Roman;" parent="17" vertex="1">
                    <mxGeometry x="40" y="710" width="150" height="40" as="geometry"/>
                </mxCell>
                <mxCell id="136" value="Jour 2" style="rounded=0;whiteSpace=wrap;html=1;fillColor=#fff2cc;strokeColor=#d6b656;fontSize=20;fontStyle=1;fontFamily=Times New Roman;" parent="17" vertex="1">
                    <mxGeometry x="40" y="330" width="150" height="60" as="geometry"/>
                </mxCell>
                <mxCell id="137" value="&lt;span style=&quot;font-size: 14px&quot;&gt;Grille de dÃ©placement&lt;/span&gt;" style="rounded=0;whiteSpace=wrap;html=1;fillColor=#fff2cc;strokeColor=none;fontSize=16;fontFamily=Times New Roman;" parent="17" vertex="1">
                    <mxGeometry x="40" y="430" width="150" height="40" as="geometry"/>
                </mxCell>
                <mxCell id="138" value="Total d'heure : 6:35" style="rounded=0;whiteSpace=wrap;html=1;fillColor=#fff2cc;strokeColor=none;fontSize=16;fontFamily=Times New Roman;" parent="17" vertex="1">
                    <mxGeometry x="40" y="390" width="150" height="40" as="geometry"/>
                </mxCell>
                <mxCell id="139" value="Jour 1" style="rounded=0;whiteSpace=wrap;html=1;fillColor=#f8cecc;strokeColor=#b85450;fontSize=20;fontStyle=1;fontFamily=Times New Roman;" parent="17" vertex="1">
                    <mxGeometry x="40" y="170" width="150" height="60" as="geometry"/>
                </mxCell>
                <mxCell id="140" value="&lt;span style=&quot;font-size: 14px&quot;&gt;Creation d'entitÃ©s ennemi&lt;/span&gt;" style="rounded=0;whiteSpace=wrap;html=1;fillColor=#f8cecc;strokeColor=none;fontSize=16;fontFamily=Times New Roman;" parent="17" vertex="1">
                    <mxGeometry x="40" y="270" width="150" height="40" as="geometry"/>
                </mxCell>
                <mxCell id="141" value="Total d'heure : 5:50" style="rounded=0;whiteSpace=wrap;html=1;fillColor=#f8cecc;strokeColor=none;fontSize=16;fontFamily=Times New Roman;" parent="17" vertex="1">
                    <mxGeometry x="40" y="230" width="150" height="40" as="geometry"/>
                </mxCell>
                <mxCell id="142" value="Documentation&lt;br&gt;Temps: 1:00" style="html=1;shape=mxgraph.infographic.ribbonSimple;notch1=5.29;notch2=5.57;align=center;verticalAlign=middle;fontSize=14;fontStyle=0;fillColor=#f8cecc;strokeColor=#b85450;fontFamily=Times New Roman;" parent="17" vertex="1">
                    <mxGeometry x="1040" y="170" width="120" height="50" as="geometry"/>
                </mxCell>
                <mxCell id="143" value="Algorithm HPA" style="rounded=0;whiteSpace=wrap;html=1;fillColor=#d5e8d4;strokeColor=none;fontSize=16;fontFamily=Times New Roman;" parent="17" vertex="1">
                    <mxGeometry x="40" y="590" width="150" height="40" as="geometry"/>
                </mxCell>
                <mxCell id="144" value="Use Case" style="html=1;shape=mxgraph.infographic.ribbonSimple;notch1=5.29;notch2=5.57;align=center;verticalAlign=middle;fontSize=14;fontStyle=0;fillColor=#f8cecc;strokeColor=#b85450;fontFamily=Times New Roman;" parent="17" vertex="1">
                    <mxGeometry x="280" y="270" width="150" height="40" as="geometry"/>
                </mxCell>
                <mxCell id="145" value="UML" style="html=1;shape=mxgraph.infographic.ribbonSimple;notch1=5.29;notch2=5.57;align=center;verticalAlign=middle;fontSize=14;fontStyle=0;fillColor=#f8cecc;strokeColor=#b85450;fontFamily=Times New Roman;" parent="17" vertex="1">
                    <mxGeometry x="430" y="230" width="250" height="40" as="geometry"/>
                </mxCell>
                <mxCell id="149" value="Test Unitaire" style="html=1;shape=mxgraph.infographic.ribbonSimple;notch1=5.29;notch2=5.57;align=center;verticalAlign=middle;fontSize=14;fontStyle=0;fillColor=#d5e8d4;strokeColor=#82b366;fontFamily=Times New Roman;" parent="17" vertex="1">
                    <mxGeometry x="920" y="710" width="120" height="40" as="geometry"/>
                </mxCell>
                <mxCell id="150" value="Pathfinding&amp;nbsp; 1Ã¨re couche (chunk)" style="html=1;shape=mxgraph.infographic.ribbonSimple;notch1=5.29;notch2=5.57;align=center;verticalAlign=middle;fontSize=14;fontStyle=0;fillColor=#d5e8d4;strokeColor=#82b366;fontFamily=Times New Roman;" vertex="1" parent="17">
                    <mxGeometry x="200" y="710" width="200" height="40" as="geometry"/>
                </mxCell>
                <mxCell id="151" value="Pathfinding&amp;nbsp; 2eme couche (Cellule)" style="html=1;shape=mxgraph.infographic.ribbonSimple;notch1=5.29;notch2=5.57;align=center;verticalAlign=middle;fontSize=14;fontStyle=0;fillColor=#d5e8d4;strokeColor=#82b366;fontFamily=Times New Roman;" vertex="1" parent="17">
                    <mxGeometry x="380" y="750" width="220" height="40" as="geometry"/>
                </mxCell>
                <mxCell id="152" value="Documentation&lt;br&gt;Temps: 0:35" style="html=1;shape=mxgraph.infographic.ribbonSimple;notch1=5.29;notch2=5.57;align=center;verticalAlign=middle;fontSize=14;fontStyle=0;fillColor=#d5e8d4;strokeColor=#82b366;fontFamily=Times New Roman;" vertex="1" parent="17">
                    <mxGeometry x="600" y="650" width="120" height="50" as="geometry"/>
                </mxCell>
            </root>
        </mxGraphModel>
    </diagram>
</mxfile>